<svg width="1392" height="752" viewBox="0 0 1392 752" fill="none" xmlns="http://www.w3.org/2000/svg">
<g opacity="0.05">
<path fill-rule="evenodd" clip-rule="evenodd" d="M64.4082 988.764C23.083 899.767 0 800.579 0 696.001C0 591.423 23.083 492.235 64.4082 403.238C81.289 415.127 97.0971 428.432 111.654 442.982C176.399 507.727 216.452 597.185 216.452 696.001C216.452 794.81 176.399 884.268 111.661 949.013C97.0971 963.57 81.289 976.875 64.4082 988.764Z" fill="#333333"/>
<path fill-rule="evenodd" clip-rule="evenodd" d="M231.375 1214.2C188.971 1176.15 151.269 1132.98 119.234 1085.66C144.73 1068.57 168.466 1049.06 190.085 1027.43C274.908 942.611 327.379 825.429 327.379 696C327.379 566.565 274.908 449.383 190.078 364.56C168.459 342.941 144.723 323.42 119.234 306.34C151.269 259.019 188.971 215.851 231.369 177.812C260.551 198.53 287.911 221.654 313.153 246.896C428.079 361.823 499.171 520.612 499.171 696C499.171 871.382 428.079 1030.18 313.153 1145.11C287.911 1170.35 260.558 1193.47 231.375 1214.2Z" fill="#333333"/>
<path fill-rule="evenodd" clip-rule="evenodd" d="M489.087 1360.72C430.09 1342.39 374.477 1316.37 323.367 1283.91C347.316 1265.17 370.103 1245.01 391.577 1223.53C526.582 1088.53 610.099 902.008 610.099 696C610.099 489.993 526.589 303.48 391.577 168.475C370.103 146.994 347.316 126.826 323.36 108.089C374.47 75.6271 430.09 49.6217 489.087 31.2764C495.908 37.6849 502.633 44.1896 509.241 50.7975C674.356 215.913 776.486 444.033 776.486 696C776.486 947.961 674.356 1176.09 509.241 1341.2C502.633 1347.81 495.908 1354.32 489.087 1360.72Z" fill="#333333"/>
<path fill-rule="evenodd" clip-rule="evenodd" d="M1284.64 324.542C1352.63 432.022 1392 559.415 1392 696.001C1392 832.588 1352.63 959.974 1284.64 1067.46C1209.21 963.006 1164.74 834.692 1164.74 696.001C1164.74 557.297 1209.21 428.989 1284.64 324.542Z" fill="#333333"/>
<path fill-rule="evenodd" clip-rule="evenodd" d="M696.001 0.00012207C902.379 0.00012207 1087.75 89.8704 1215.21 232.563C1114.18 359.853 1053.81 520.877 1053.81 695.997C1053.81 871.123 1114.18 1032.16 1215.2 1159.44C1087.74 1302.14 902.372 1392 696.001 1392C669.713 1392 643.791 1390.49 618.267 1387.66C785.39 1205.51 887.417 962.658 887.417 695.997C887.417 429.342 785.39 186.486 618.267 4.3458C643.791 1.50598 669.713 0.00012207 696.001 0.00012207Z" fill="#333333"/>
</g>
</svg>
