<svg width="48" height="48" viewBox="0 0 48 48" fill="none" xmlns="http://www.w3.org/2000/svg">
<path fill-rule="evenodd" clip-rule="evenodd" d="M41.8378 17.1183C40.7676 15.1691 41.9805 13.1248 41.0292 10.7002C40.6962 9.86818 40.1968 9.10751 39.5546 8.44192C38.6984 7.58617 37.6043 6.9919 36.4389 6.70665C34.6076 6.27877 32.9665 6.96813 31.3968 6.42139C29.8508 5.87466 28.8995 3.75905 27.1157 2.80821C26.1643 2.28525 25.0941 2 24 2C22.6443 2 21.36 2.42788 20.2659 3.16478C18.7438 4.23447 18.2919 5.82712 16.4368 6.44516C14.8432 6.9919 13.2022 6.23123 11.2519 6.80173C10.2054 7.08698 9.23027 7.65748 8.44541 8.44192C7.47027 9.41653 6.85189 10.6288 6.61405 11.9362C6.28108 13.8379 7.1373 15.1929 6.20973 17.0232C5.94811 17.5224 5.59135 17.9503 5.16324 18.3306L4.35459 18.9962C2.85622 20.2323 2 22.0627 2 24.0119C2 25.9373 2.85622 27.7677 4.35459 29.0038L5.16324 29.6694C5.75784 30.1686 6.18595 30.8341 6.44757 31.5473C6.94703 32.9735 6.4 34.3047 6.59027 35.7785C6.75676 37.2048 7.39892 38.5359 8.44541 39.5581C9.61081 40.7229 11.1568 41.3884 12.7978 41.4597C14.1773 41.5073 15.1286 41.0794 16.5081 41.5786C18.1968 42.1966 18.6249 43.5278 19.9092 44.55C21.0508 45.477 22.5016 46 24 46C25.3795 46 26.7114 45.5483 27.8054 44.7639C28.9708 43.9319 29.5416 42.6958 30.6595 41.9827C32.5384 40.7942 34.1795 41.745 36.1773 41.3409C37.4616 41.1032 38.627 40.4851 39.5546 39.5581C42.8368 36.2777 40.6487 34.2334 41.5287 31.5948C41.7665 30.8579 42.2184 30.1923 42.8368 29.6694L43.6454 29.0038C45.1438 27.7677 46 25.9373 46 24.0119C46 22.7996 45.667 21.6348 45.0486 20.6126C44.1211 19.0675 42.5989 18.4733 41.8378 17.1183V17.1183Z" stroke="#333333" stroke-width="2.25993" stroke-miterlimit="22.9256" stroke-linecap="round" stroke-linejoin="round"/>
<path fill-rule="evenodd" clip-rule="evenodd" d="M23.9998 10.819C20.5036 10.819 17.1501 12.1977 14.6528 14.6699C12.1793 17.142 10.7998 20.4937 10.7998 24.0118C10.7998 27.5062 12.1793 30.8579 14.6528 33.33C17.1501 35.8022 20.5036 37.2047 23.9998 37.2047C27.496 37.2047 30.8495 35.8022 33.3468 33.33C35.8203 30.8579 37.1998 27.5062 37.1998 24.0118C37.1998 20.5175 35.7966 17.142 33.323 14.6699C30.8495 12.1977 27.496 10.819 23.9998 10.819V10.819Z" stroke="#333333" stroke-width="2.25993" stroke-miterlimit="22.9256" stroke-linecap="round" stroke-linejoin="round"/>
<path d="M29.4699 20.2323L22.7153 26.9357L18.791 23.0373" stroke="#333333" stroke-width="2.25993" stroke-miterlimit="22.9256" stroke-linecap="round" stroke-linejoin="round"/>
</svg>
