<svg width="170" height="56" viewBox="0 0 170 56" fill="none" xmlns="http://www.w3.org/2000/svg">
<path fill-rule="evenodd" clip-rule="evenodd" d="M2.58567 39.7778C0.926668 36.1975 0 32.2072 0 28C0 23.7929 0.926668 19.8026 2.58567 16.2222C3.26335 16.7005 3.89797 17.2358 4.48235 17.8211C7.08155 20.4258 8.68948 24.0247 8.68948 28C8.68948 31.9751 7.08155 35.574 4.48262 38.1787C3.89797 38.7643 3.26335 39.2996 2.58567 39.7778Z" fill="#339966"/>
<path fill-rule="evenodd" clip-rule="evenodd" d="M9.28857 48.847C7.58622 47.3164 6.07269 45.5797 4.78662 43.676C5.81018 42.9886 6.76307 42.2036 7.63094 41.3336C11.0362 37.9211 13.1426 33.2069 13.1426 28C13.1426 22.7929 11.0362 18.0786 7.63067 14.6662C6.7628 13.7965 5.8099 13.0112 4.78662 12.324C6.07269 10.4203 7.58622 8.68366 9.28829 7.15338C10.4598 7.98685 11.5582 8.91714 12.5715 9.93262C17.1853 14.5561 20.0392 20.9442 20.0392 28C20.0392 35.0556 17.1853 41.4439 12.5715 46.0677C11.5582 47.0832 10.4601 48.0132 9.28857 48.847Z" fill="#339966"/>
<path fill-rule="evenodd" clip-rule="evenodd" d="M19.6346 54.7418C17.2661 54.004 15.0335 52.9576 12.9817 51.6516C13.9432 50.8978 14.858 50.0868 15.72 49.2226C21.1398 43.7914 24.4926 36.2877 24.4926 28C24.4926 19.7124 21.1401 12.209 15.72 6.77772C14.858 5.91355 13.9432 5.10221 12.9814 4.34841C15.0333 3.04247 17.2661 1.99628 19.6346 1.25825C19.9084 1.51606 20.1784 1.77775 20.4437 2.04358C27.0722 8.68615 31.1722 17.8634 31.1722 28C31.1722 38.1364 27.0722 47.3139 20.4437 53.9565C20.1784 54.2223 19.9084 54.484 19.6346 54.7418Z" fill="#339966"/>
<path fill-rule="evenodd" clip-rule="evenodd" d="M51.5724 13.0563C54.3016 17.3802 55.8822 22.5052 55.8822 28C55.8822 33.4949 54.3016 38.6196 51.5724 42.9438C48.5439 38.7416 46.7588 33.5795 46.7588 28C46.7588 22.42 48.5439 17.2582 51.5724 13.0563Z" fill="#FF6600"/>
<path fill-rule="evenodd" clip-rule="evenodd" d="M27.9409 0C36.226 0 43.6678 3.61547 48.7845 9.35597C44.7286 14.4768 42.3053 20.9548 42.3053 27.9999C42.3053 35.0452 44.7286 41.5237 48.7842 46.6443C43.6675 52.3851 36.2258 56 27.9409 56C26.8856 56 25.845 55.9394 24.8203 55.8255C31.5295 48.4977 35.6254 38.7276 35.6254 27.9999C35.6254 17.2724 31.5295 7.50231 24.8203 0.174826C25.845 0.0605806 26.8856 0 27.9409 0Z" fill="#FF6600"/>
<path fill-rule="evenodd" clip-rule="evenodd" d="M75.1968 14.0054H81.3012V41.9947H77.152V21.9221L74.1192 41.9947H69.9697L66.6978 22.202V41.9947H62.8672V14.0054H68.9721L72.2043 33.8777L75.1968 14.0054ZM88.8826 14.0054V41.9947H84.4936V14.0054H88.8826ZM102.13 27.6L107.037 41.9947H102.409L98.8182 30.9187L95.1869 41.9947H91.0774L95.9852 27.6L91.3963 14.0054H95.9449L99.2571 24.3212L102.648 14.0054H106.718L102.13 27.6ZM119.008 41.9947L118.249 36.9164H112.863L112.105 41.9947H108.075L112.544 14.0054H118.968L123.436 41.9947H119.008ZM117.651 33.1178L115.536 18.9636L113.422 33.1178H117.651ZM138.159 26.4003V35.2769C138.159 37.5427 137.601 39.2821 136.484 40.4951C135.367 41.7081 133.744 42.3145 131.616 42.3145C129.488 42.3145 127.865 41.7081 126.748 40.4951C125.631 39.2821 125.072 37.5427 125.072 35.2769V20.7226C125.072 18.4568 125.631 16.7177 126.748 15.5049C127.865 14.2919 129.488 13.6856 131.616 13.6856C133.744 13.6856 135.367 14.2919 136.484 15.5049C137.601 16.7177 138.159 18.4568 138.159 20.7226V23.4418H134.01V20.4429C134.01 18.6034 133.252 17.6839 131.736 17.6839C130.219 17.6839 129.461 18.6034 129.461 20.4429V35.5568C129.461 37.3696 130.219 38.2758 131.736 38.2758C133.252 38.2758 134.01 37.3696 134.01 35.5568V30.3992H132.015V26.4003H138.159ZM150.17 41.9947C150.01 41.5413 149.904 41.1148 149.851 40.7148C149.797 40.3153 149.771 39.5955 149.771 38.5557V34.1577C149.771 32.8777 149.545 31.9649 149.093 31.4188C148.64 30.8722 147.909 30.5989 146.898 30.5989H145.382V41.9947H140.993V14.0054H147.616C149.877 14.0054 151.526 14.5315 152.564 15.5846C153.601 16.6374 154.12 18.2571 154.12 20.4429V22.6418C154.12 25.5207 153.162 27.4136 151.247 28.3198C152.284 28.7464 153.029 29.4595 153.481 30.4589C153.934 31.4587 154.16 32.7311 154.16 34.2777V38.5956C154.16 39.3958 154.186 40.042 154.24 40.535C154.292 41.0285 154.426 41.5148 154.639 41.9947H150.17ZM145.382 26.6006H147.097C147.975 26.6006 148.634 26.3738 149.073 25.9206C149.511 25.4675 149.731 24.7079 149.731 23.6415V20.8828C149.731 19.8698 149.551 19.1367 149.192 18.6836C148.833 18.2305 148.268 18.0037 147.496 18.0037H145.382V26.6006ZM156.673 20.7226C156.673 18.4839 157.245 16.7508 158.389 15.5248C159.533 14.2986 161.182 13.6856 163.337 13.6856C165.491 13.6856 167.141 14.2986 168.285 15.5248C169.428 16.7508 170 18.4839 170 20.7226V35.2769C170 37.5162 169.428 39.2492 168.285 40.4752C167.141 41.7012 165.491 42.3145 163.337 42.3145C161.182 42.3145 159.533 41.7012 158.389 40.4752C157.245 39.2492 156.673 37.5162 156.673 35.2769V20.7226ZM161.063 35.5568C161.063 37.3961 161.821 38.3162 163.337 38.3162C164.853 38.3162 165.611 37.3961 165.611 35.5568V20.4429C165.611 18.6034 164.853 17.6839 163.337 17.6839C161.821 17.6839 161.063 18.6034 161.063 20.4429V35.5568Z" fill="white"/>
</svg>
