<svg width="985" height="256" viewBox="0 0 985 256" fill="none" xmlns="http://www.w3.org/2000/svg">
<path opacity="0.2" fill-rule="evenodd" clip-rule="evenodd" d="M113.262 0.904135H169.338V255.096H131.223V72.8014L103.362 255.096H65.2449L35.1886 75.3438V255.096H0V0.904135H56.0807L85.7718 181.38L113.262 0.904135ZM238.982 0.904135V255.096H198.663V0.904135H238.982ZM360.673 124.367L405.753 255.096H363.239L330.251 154.506L296.893 255.096H259.144L304.227 124.367L262.073 0.904135H303.857L334.283 94.5899L365.435 0.904135H402.822L360.673 124.367ZM515.714 255.096L508.748 208.976H459.268L452.305 255.096H415.283L456.336 0.904135H515.349L556.397 255.096H515.714ZM503.25 174.479L483.827 45.9332L464.4 174.479H503.25ZM691.647 113.472V194.087C691.647 214.664 686.517 230.461 676.252 241.477C665.99 252.493 651.085 258 631.537 258C611.989 258 597.083 252.493 586.819 241.477C576.556 230.461 571.424 214.664 571.424 194.087V61.9084C571.424 41.3308 576.556 25.5365 586.819 14.5229C597.083 3.50679 611.989 -2 631.537 -2C651.085 -2 665.99 3.50679 676.252 14.5229C686.517 25.5365 691.647 41.3308 691.647 61.9084V86.6036H653.529V59.3686C653.529 42.6623 646.564 34.3117 632.637 34.3117C618.708 34.3117 611.745 42.6623 611.745 59.3686V196.629C611.745 213.091 618.708 221.322 632.637 221.322C646.564 221.322 653.529 213.091 653.529 196.629V149.788H635.203V113.472H691.647ZM801.975 255.096C800.509 250.978 799.53 247.104 799.043 243.472C798.552 239.844 798.308 233.307 798.308 223.864V183.922C798.308 172.298 796.234 164.008 792.08 159.049C787.924 154.084 781.204 151.602 771.918 151.602H757.992V255.096H717.674V0.904135H778.516C799.287 0.904135 814.438 5.68238 823.967 15.2464C833.497 24.8079 838.261 39.517 838.261 59.3686V79.3382C838.261 105.483 829.465 122.674 811.872 130.904C821.401 134.778 828.242 141.254 832.396 150.331C836.552 159.41 838.626 170.967 838.626 185.012V224.226C838.626 231.494 838.872 237.362 839.362 241.839C839.846 246.321 841.071 250.737 843.028 255.096H801.975ZM757.992 115.291H773.749C781.813 115.291 787.866 113.231 791.898 109.116C795.924 105.001 797.943 98.102 797.943 88.4174V63.363C797.943 54.1633 796.295 47.5059 792.993 43.3909C789.697 39.2758 784.503 37.2158 777.416 37.2158H757.992V115.291ZM861.717 61.9084C861.717 41.577 866.974 25.8379 877.482 14.7038C887.985 3.56709 903.136 -2 922.93 -2C942.722 -2 957.873 3.56709 968.381 14.7038C978.886 25.8379 984.141 41.577 984.141 61.9084V194.087C984.141 214.423 978.886 230.162 968.381 241.296C957.873 252.43 942.722 258 922.93 258C903.136 258 887.985 252.43 877.482 241.296C866.974 230.162 861.717 214.423 861.717 194.087V61.9084ZM902.041 196.629C902.041 213.333 909.004 221.688 922.93 221.688C936.859 221.688 943.822 213.333 943.822 196.629V59.3686C943.822 42.6623 936.859 34.3117 922.93 34.3117C909.004 34.3117 902.041 42.6623 902.041 59.3686V196.629Z" fill="white"/>
</svg>
